# Blender v2.68 (sub 0) OBJ File: 'obstacle.blend'
# www.blender.org
mtllib obstacle.mtl
o Cylinder
v 3.693193 -0.734268 -1.250724
v 3.693333 -0.734263 1.269482
v 3.479133 -1.439929 -1.250720
v 3.479273 -1.439925 1.269485
v 3.131519 -2.090271 -1.250713
v 3.131659 -2.090266 1.269492
v 2.663707 -2.660300 -1.250705
v 2.663847 -2.660295 1.269501
v 2.093678 -3.128111 -1.250694
v 2.093818 -3.128106 1.269512
v 1.443336 -3.475725 -1.250682
v 1.443477 -3.475720 1.269524
v 0.737675 -3.689785 -1.250669
v 0.737815 -3.689781 1.269537
v 0.003812 -3.762065 -1.250655
v 0.003952 -3.762059 1.269550
v 0.003519 -4.999997 1.259045
v 0.003439 -5.000003 -1.240150
v 0.978970 -4.903924 1.259013
v 0.978890 -4.903930 -1.240181
v 1.916935 -4.619395 1.258983
v 1.916856 -4.619401 -1.240211
v 2.781370 -4.157345 1.258956
v 2.781290 -4.157351 -1.240239
v 3.539053 -3.535531 1.258931
v 3.538973 -3.535537 -1.240263
v 4.160868 -2.777848 1.258911
v 4.160788 -2.777854 -1.240283
v 4.622918 -1.913413 1.258896
v 4.622837 -1.913420 -1.240298
v 4.907445 -0.975447 1.258887
v 4.907365 -0.975454 -1.240308
v 5.003519 0.000005 1.258884
v 5.003439 -0.000001 -1.240311
v 3.765472 -0.000404 -1.250725
v 3.765612 -0.000399 1.269480
vt 0.999787 0.216391
vt 1.000000 0.291641
vt 0.740671 0.217124
vt 0.999572 0.140781
vt 0.740456 0.141513
vt 0.999364 0.067714
vt 0.740248 0.068447
vt 0.999171 0.000000
vt 0.740055 0.000732
vt 0.481300 0.740935
vt 0.481094 0.673221
vt 0.740416 0.740155
vt 0.481522 0.814002
vt 0.740638 0.813222
vt 0.481753 0.889613
vt 0.740869 0.888832
vt 0.481982 0.964862
vt 0.741098 0.964082
vt 0.738049 0.672441
vt 0.481094 0.671674
vt 0.738191 0.624935
vt 0.481235 0.624169
vt 0.738382 0.561003
vt 0.481426 0.560237
vt 0.738615 0.483102
vt 0.481659 0.482335
vt 0.738880 0.394225
vt 0.481924 0.393458
vt 0.739168 0.297787
vt 0.482212 0.297020
vt 0.739468 0.197496
vt 0.482512 0.196729
vt 0.739767 0.097204
vt 0.482811 0.096437
vt 0.740055 0.000767
vt 0.230670 0.463803
vt 0.105847 0.438964
vt 0.113280 0.363512
vt 0.230673 0.263219
vt 0.105850 0.288059
vt 0.201421 0.166781
vt 0.153918 0.077903
vt 0.048104 0.148639
vt 0.089989 0.000000
vt 0.441960 0.166778
vt 0.324387 0.215505
vt 0.394454 0.077901
vt 0.481094 0.363507
vt 0.353829 0.363511
vt 0.471214 0.263215
vt 0.441966 0.560237
vt 0.324392 0.511517
vt 0.346399 0.438964
vt 0.330533 0.727018
vt 0.240557 0.636992
vt 0.288654 0.578383
vt 0.089977 0.727018
vt 0.000000 0.636989
vt 0.048098 0.578382
vt 0.201415 0.560241
vt 0.083838 0.511517
vt 0.240549 0.363511
vt 0.083843 0.215505
vt 0.288647 0.148640
vt 0.330522 0.000000
vt 0.346396 0.288058
vt 0.471218 0.463799
vt 0.865037 0.550038
vt 0.740835 0.551489
vt 0.740055 0.292373
vt 0.394463 0.649115
vt 0.741098 0.673873
vt 0.865298 0.672441
vt 0.741825 0.930828
vt 0.153909 0.649117
vt 0.740884 0.292373
vt 0.740210 0.672441
vt 0.483099 0.000000
vt 0.000008 0.090030
vt 0.240549 0.090033
vt 0.864257 0.293082
vt 0.866030 0.931557
vn -0.995185 0.098017 0.000055
vn -0.956941 0.290284 0.000053
vn -0.881921 0.471397 0.000048
vn -0.773010 0.634394 0.000042
vn -0.634393 0.773011 0.000034
vn -0.471397 0.881921 0.000025
vn -0.290285 0.956940 0.000015
vn -0.098016 0.995185 0.000003
vn 0.098017 -0.995185 -0.000000
vn 0.290285 -0.956940 -0.000007
vn 0.471396 -0.881921 -0.000013
vn 0.634393 -0.773011 -0.000018
vn 0.773010 -0.634393 -0.000023
vn 0.881921 -0.471397 -0.000027
vn 0.956941 -0.290284 -0.000030
vn 0.995185 -0.098017 -0.000032
vn 0.005372 -0.006569 -0.999964
vn 0.007459 -0.004004 -0.999964
vn 0.008413 -0.000832 -0.999964
vn 0.002512 -0.008176 0.999963
vn 0.005461 -0.006615 0.999963
vn 0.007585 -0.004044 0.999963
vn 0.008560 -0.000840 0.999963
vn 0.000817 -0.008486 -0.999964
vn 0.003992 -0.007502 -0.999964
vn 0.006537 -0.005392 -0.999964
vn 0.008092 -0.002465 -0.999964
vn 0.000869 -0.008495 0.999964
vn 0.004063 -0.007541 0.999963
vn 0.006646 -0.005439 0.999963
vn -0.000325 1.000000 -0.000002
vn 0.008231 -0.002492 0.999963
vn -1.000000 0.000350 0.000032
vn 0.002454 -0.008150 -0.999964
vn -0.956940 0.290285 0.000053
vn -0.881922 0.471396 0.000048
vn -0.471396 0.881922 0.000025
vn -0.290285 0.956940 0.000014
vn -0.098017 0.995185 0.000004
vn 0.634393 -0.773010 -0.000019
vn 0.773010 -0.634394 -0.000023
vn 0.881921 -0.471396 -0.000027
vn 0.995185 -0.098018 -0.000031
vn 0.005360 -0.006569 -0.999964
vn 0.007458 -0.003996 -0.999964
vn 0.008412 -0.000831 -0.999964
vn 0.002497 -0.008171 0.999963
vn 0.005448 -0.006616 0.999963
vn 0.007584 -0.004036 0.999963
vn 0.008559 -0.000840 0.999963
vn 0.000803 -0.008478 -0.999964
vn 0.003977 -0.007500 -0.999964
vn 0.006538 -0.005381 -0.999964
vn 0.008090 -0.002459 -0.999964
vn 0.000854 -0.008487 0.999964
vn 0.004049 -0.007540 0.999963
vn 0.006647 -0.005429 0.999963
vn -0.000326 1.000000 -0.000002
vn 0.008229 -0.002486 0.999963
vn -1.000000 0.000302 0.000056
vn 0.002439 -0.008145 -0.999964
usemtl None
s off
f 2/1/1 36/2/1 1/3/1
f 4/4/2 2/1/2 3/5/2
f 6/6/3 4/4/3 5/7/3
f 8/8/4 6/6/4 7/9/4
f 10/10/5 8/11/5 9/12/5
f 12/13/6 10/10/6 11/14/6
f 14/15/7 12/13/7 13/16/7
f 16/17/8 14/15/8 15/18/8
f 17/19/9 18/20/9 19/21/9
f 19/21/10 20/22/10 21/23/10
f 21/23/11 22/24/11 23/25/11
f 23/25/12 24/26/12 25/27/12
f 25/27/13 26/28/13 27/29/13
f 27/29/14 28/30/14 29/31/14
f 29/31/15 30/32/15 31/33/15
f 31/33/16 32/34/16 33/35/16
f 24/36/17 9/37/17 7/38/17
f 28/39/18 5/40/18 30/41/18
f 32/42/19 1/43/19 34/44/19
f 21/45/20 12/46/20 19/47/20
f 25/48/21 8/49/21 23/50/21
f 29/51/22 4/52/22 6/53/22
f 33/54/23 36/55/23 2/56/23
f 18/57/24 15/58/24 13/59/24
f 22/60/25 11/61/25 9/37/25
f 26/62/26 7/38/26 28/39/26
f 30/41/27 3/63/27 32/42/27
f 19/47/28 14/64/28 17/65/28
f 23/50/29 10/66/29 21/45/29
f 27/67/30 6/53/30 8/49/30
f 34/68/31 35/69/31 36/70/31
f 31/71/32 2/56/32 4/52/32
f 17/72/33 16/73/33 18/74/33
f 20/75/34 13/59/34 11/61/34
f 36/2/1 35/76/1 1/3/1
f 2/1/35 1/3/35 3/5/35
f 4/4/36 3/5/36 5/7/36
f 6/6/4 5/7/4 7/9/4
f 8/11/5 7/77/5 9/12/5
f 10/10/37 9/12/37 11/14/37
f 12/13/38 11/14/38 13/16/38
f 14/15/39 13/16/39 15/18/39
f 18/20/9 20/22/9 19/21/9
f 20/22/10 22/24/10 21/23/10
f 22/24/11 24/26/11 23/25/11
f 24/26/40 26/28/40 25/27/40
f 26/28/41 28/30/41 27/29/41
f 28/30/42 30/32/42 29/31/42
f 30/32/15 32/34/15 31/33/15
f 32/34/43 34/78/43 33/35/43
f 26/62/44 24/36/44 7/38/44
f 5/40/45 3/63/45 30/41/45
f 1/43/46 35/79/46 34/44/46
f 12/46/47 14/64/47 19/47/47
f 8/49/48 10/66/48 23/50/48
f 27/67/49 29/51/49 6/53/49
f 31/71/50 33/54/50 2/56/50
f 20/75/51 18/57/51 13/59/51
f 24/36/52 22/60/52 9/37/52
f 7/38/53 5/40/53 28/39/53
f 3/63/54 1/43/54 32/42/54
f 14/64/55 16/80/55 17/65/55
f 10/66/56 12/46/56 21/45/56
f 25/48/57 27/67/57 8/49/57
f 33/81/58 34/68/58 36/70/58
f 29/51/59 31/71/59 4/52/59
f 16/73/60 15/82/60 18/74/60
f 22/60/61 20/75/61 11/61/61
